<svg width="70" height="70" viewBox="0 0 70 70" fill="none" xmlns="http://www.w3.org/2000/svg">
<path d="M21.9204 39.4716C25.2791 39.4716 28.0015 42.195 28.0015 45.5536C28.0013 48.9122 25.279 51.6347 21.9204 51.6347C18.5619 51.6346 15.8395 48.9121 15.8394 45.5536C15.8394 42.195 18.5618 39.4717 21.9204 39.4716ZM48.1353 27.9648C51.4939 27.9648 54.2173 30.6872 54.2173 34.0458C54.2172 37.4044 51.4939 40.1269 48.1353 40.1269C44.7767 40.1268 42.0543 37.4044 42.0542 34.0458C42.0542 30.6872 44.7767 27.9649 48.1353 27.9648ZM23.3804 14.7167C26.7388 14.7169 29.4614 17.4393 29.4614 20.7978C29.4614 24.1563 26.7389 26.8787 23.3804 26.8788C20.0217 26.8788 17.2983 24.1565 17.2983 20.7978C17.2984 17.4392 20.0218 14.7167 23.3804 14.7167Z" stroke="#3ECF8E" stroke-width="4.06014"/>
<path d="M42.3817 30.3689C40.3983 28.6661 35.1796 24.8901 30.1724 23.4082M28.0112 66.9406C26.3553 64.162 22.9816 57.0553 22.7346 50.858M16.0265 46.676C13.7062 47.1906 7.92062 48.1411 3.34003 47.8268M21.1347 39.0978C20.7792 36.8805 20.405 31.3176 21.7522 26.8043M27.7867 43.8693C31.7068 42.2507 40.0858 38.6095 42.2414 36.9928M18.1035 18.4402C15.6055 17.7292 9.66641 16.5204 5.89416 17.3737M23.9134 14.9599C25.2173 11.2001 28.884 3.28684 33.1195 1.7121" stroke="#3ECF8E" stroke-width="3.32799"/>
<path d="M35 1.86328C53.3007 1.86328 68.1367 16.6993 68.1367 35C68.1367 53.3007 53.3007 68.1367 35 68.1367C16.6993 68.1367 1.86328 53.3007 1.86328 35C1.86328 16.6993 16.6993 1.86328 35 1.86328Z" stroke="#3ECF8E" stroke-width="3.72735"/>
</svg>
